<svg width="24" height="24" viewBox="0 0 24 24" fill="none" xmlns="http://www.w3.org/2000/svg">
<path d="M24 12.5013C24 12.8991 23.8692 13.2806 23.6364 13.5618C23.4036 13.8431 23.0879 14.0011 22.7586 14.0011H20.2159L16.4203 23.1713C16.3172 23.4203 16.1588 23.6297 15.9627 23.7761C15.7667 23.9224 15.5408 24 15.3103 24H15.2483C15.0075 23.9853 14.7756 23.8862 14.5807 23.7149C14.3858 23.5435 14.2364 23.3073 14.1507 23.0351L8.58621 5.39585L5.68138 13.1262C5.58226 13.3875 5.42309 13.6089 5.22282 13.764C5.02255 13.9191 4.78961 14.0014 4.55172 14.0011H1.24138C0.912145 14.0011 0.596395 13.8431 0.363592 13.5618C0.130788 13.2806 0 12.8991 0 12.5013C0 12.1035 0.130788 11.722 0.363592 11.4408C0.596395 11.1595 0.912145 11.0015 1.24138 11.0015H3.75207L7.56 0.877605C7.66155 0.608506 7.82669 0.381688 8.03465 0.22567C8.2426 0.0696528 8.48409 -0.0086003 8.72876 0.000750003C8.97342 0.0101003 9.21034 0.106637 9.40972 0.278221C9.60909 0.449806 9.76204 0.688779 9.84931 0.965095L15.4645 18.7706L18.3383 11.8264C18.4418 11.5781 18.6005 11.3695 18.7965 11.2238C18.9925 11.0781 19.2182 11.0011 19.4483 11.0015H22.7586C23.0879 11.0015 23.4036 11.1595 23.6364 11.4408C23.8692 11.722 24 12.1035 24 12.5013Z" fill="currentColor"/>
</svg>
