<svg width="16" height="17" viewBox="0 0 16 17" fill="none" xmlns="http://www.w3.org/2000/svg">
<path d="M15.7842 11.4839C15.0897 10.309 14.7209 8.6226 14.7209 6.61037C14.7209 4.85719 14.0128 3.17582 12.7524 1.93613C11.4921 0.696448 9.78264 0 8.00021 0C6.21777 0 4.50834 0.696448 3.24797 1.93613C1.9876 3.17582 1.27953 4.85719 1.27953 6.61037C1.27953 8.62339 0.912289 10.309 0.217819 11.4839C0.07611 11.7236 0.000992823 11.9957 9.7743e-06 12.2729C-0.000973275 12.5501 0.0722124 12.8227 0.212219 13.0634C0.351339 13.3041 0.553264 13.504 0.797148 13.6423C1.04103 13.7806 1.31803 13.8524 1.59956 13.8503H4.49425C4.57364 14.7109 4.97735 15.5113 5.62607 16.0941C6.27478 16.6769 7.12162 17 8.00021 17C8.87879 17 9.72563 16.6769 10.3743 16.0941C11.0231 15.5113 11.4268 14.7109 11.5062 13.8503H14.4009C14.682 13.852 14.9585 13.78 15.2019 13.6417C15.4453 13.5034 15.6469 13.3037 15.7858 13.0634C15.9264 12.8231 16.0003 12.5507 16 12.2734C15.9997 11.9962 15.9253 11.7239 15.7842 11.4839ZM8.00021 15.1094C7.63132 15.1095 7.27374 14.9842 6.98797 14.7548C6.70221 14.5253 6.50582 14.2058 6.43205 13.8503H9.56837C9.49459 14.2058 9.2982 14.5253 9.01244 14.7548C8.72668 14.9842 8.36909 15.1095 8.00021 15.1094ZM2.13241 11.9616C2.84048 10.5451 3.19972 8.74615 3.19972 6.61037C3.19972 5.3581 3.70548 4.15712 4.60575 3.27163C5.50602 2.38614 6.72704 1.88868 8.00021 1.88868C9.27337 1.88868 10.4944 2.38614 11.3947 3.27163C12.2949 4.15712 12.8007 5.3581 12.8007 6.61037C12.8007 8.74537 13.1591 10.5451 13.8672 11.9616H2.13241Z" fill="#4F7F5A"/>
</svg>
