<svg width="18" height="18" viewBox="0 0 18 18" fill="none" xmlns="http://www.w3.org/2000/svg">
<path d="M16.8168 6.83147C16.5437 6.54672 16.2621 6.25267 16.1697 6.03C16.0875 5.83138 16.0813 5.4225 16.0759 5.0625C16.0642 4.28664 16.0495 3.32147 15.3636 2.63638C14.6778 1.95129 13.7134 1.9381 12.9375 1.92414C12.5775 1.91871 12.1686 1.9125 11.97 1.83026C11.7473 1.73793 11.4533 1.45629 11.1685 1.18319C10.6192 0.656379 9.93491 0 9 0C8.06509 0 7.38078 0.656379 6.83147 1.18319C6.54672 1.45629 6.25267 1.73793 6.03 1.83026C5.83138 1.9125 5.4225 1.91871 5.0625 1.92414C4.28664 1.93966 3.32147 1.95052 2.63793 2.63793C1.9544 3.32534 1.93966 4.28664 1.92414 5.0625C1.91871 5.4225 1.9125 5.83138 1.83026 6.03C1.73793 6.25267 1.45629 6.54672 1.18319 6.83147C0.656379 7.38078 0 8.06897 0 9C0 9.93103 0.656379 10.6192 1.18319 11.1724C1.45629 11.4572 1.73793 11.7512 1.83026 11.9739C1.9125 12.1725 1.91871 12.5814 1.92414 12.9414C1.93578 13.7172 1.95052 14.6824 2.63638 15.3675C3.32224 16.0526 4.28664 16.0658 5.0625 16.0797C5.4225 16.0852 5.83138 16.0914 6.03 16.1736C6.25267 16.2659 6.54672 16.5476 6.83147 16.8207C7.38078 17.3436 8.06897 18 9 18C9.93103 18 10.6192 17.3436 11.1685 16.8168C11.4533 16.5437 11.7473 16.2621 11.97 16.1697C12.1686 16.0875 12.5775 16.0813 12.9375 16.0759C13.7134 16.0642 14.6785 16.0495 15.3636 15.3636C16.0487 14.6778 16.0619 13.7134 16.0759 12.9375C16.0813 12.5775 16.0875 12.1686 16.1697 11.97C16.2621 11.7473 16.5437 11.4533 16.8168 11.1685C17.3436 10.6192 18 9.93491 18 9C18 8.06509 17.3436 7.38078 16.8168 6.83147ZM15.473 9.87983C15.0991 10.2678 14.6754 10.7116 14.4497 11.2578C14.2309 11.7853 14.2223 12.3564 14.2169 12.9096C14.2107 13.3254 14.2022 13.8957 14.0501 14.047C13.898 14.1983 13.3285 14.2076 12.9127 14.2138C12.3595 14.2223 11.7884 14.2309 11.2609 14.4466C10.7178 14.6723 10.2732 15.0959 9.88293 15.4699C9.60362 15.7376 9.18621 16.1379 9 16.1379C8.81379 16.1379 8.39638 15.7376 8.12017 15.473C7.73224 15.0991 7.28845 14.6754 6.74224 14.4497C6.21466 14.2309 5.64362 14.2223 5.09043 14.2169C4.67457 14.2107 4.10431 14.2022 3.95302 14.0501C3.80172 13.898 3.79241 13.3285 3.78621 12.9127C3.77767 12.3595 3.76914 11.7884 3.55345 11.2609C3.32767 10.7178 2.90405 10.2732 2.53009 9.88293C2.26241 9.60362 1.86207 9.18621 1.86207 9C1.86207 8.81379 2.26241 8.39638 2.52698 8.12017C2.90095 7.73224 3.32457 7.28845 3.55034 6.74224C3.76914 6.21466 3.77767 5.64362 3.7831 5.09043C3.79241 4.67457 3.80172 4.10431 3.9569 3.9569C4.11207 3.80948 4.67845 3.79629 5.09431 3.79009C5.6475 3.78155 6.21853 3.77302 6.74612 3.55733C7.28922 3.33155 7.73379 2.90793 8.12405 2.53397C8.39638 2.26241 8.81379 1.86207 9 1.86207C9.18621 1.86207 9.60362 2.26241 9.87983 2.52698C10.2678 2.90095 10.7116 3.32457 11.2578 3.55034C11.7853 3.76914 12.3564 3.77767 12.9096 3.7831C13.3254 3.78931 13.8957 3.79784 14.047 3.94991C14.1983 4.10198 14.2076 4.67147 14.2138 5.08733C14.2223 5.64052 14.2309 6.21155 14.4466 6.73914C14.6723 7.28224 15.0959 7.72681 15.4699 8.11707C15.7345 8.39328 16.1348 8.81069 16.1348 8.9969C16.1348 9.1831 15.7376 9.60362 15.473 9.87983ZM12.7622 6.47922C12.849 6.56572 12.9178 6.6685 12.9648 6.78167C13.0118 6.89484 13.036 7.01617 13.036 7.13871C13.036 7.26124 13.0118 7.38258 12.9648 7.49574C12.9178 7.60891 12.849 7.71169 12.7622 7.79819L8.41733 12.143C8.33083 12.2298 8.22805 12.2987 8.11488 12.3457C8.00171 12.3927 7.88038 12.4169 7.75784 12.4169C7.63531 12.4169 7.51398 12.3927 7.40081 12.3457C7.28764 12.2987 7.18486 12.2298 7.09836 12.143L5.23629 10.2809C5.14969 10.1943 5.08099 10.0915 5.03412 9.97837C4.98725 9.86522 4.96313 9.74394 4.96313 9.62146C4.96313 9.49899 4.98725 9.37771 5.03412 9.26456C5.08099 9.1514 5.14969 9.04859 5.23629 8.96198C5.3229 8.87538 5.42571 8.80668 5.53887 8.75981C5.65202 8.71294 5.7733 8.68882 5.89578 8.68882C6.01825 8.68882 6.13953 8.71294 6.25269 8.75981C6.36584 8.80668 6.46865 8.87538 6.55526 8.96198L7.75862 10.1638L11.4447 6.4769C11.5314 6.39049 11.6342 6.32199 11.7473 6.27534C11.8604 6.22869 11.9816 6.20478 12.1039 6.205C12.2263 6.20522 12.3474 6.22955 12.4603 6.2766C12.5733 6.32365 12.6758 6.39251 12.7622 6.47922Z" fill="#C45A5A"/>
</svg>
