<svg width="10" height="11" viewBox="0 0 10 11" fill="none" xmlns="http://www.w3.org/2000/svg">
<path d="M9.16667 0.846154H7.91667V0.423077C7.91667 0.31087 7.87277 0.203259 7.79463 0.123916C7.71649 0.044574 7.61051 0 7.5 0C7.38949 0 7.28351 0.044574 7.20537 0.123916C7.12723 0.203259 7.08333 0.31087 7.08333 0.423077V0.846154H2.91667V0.423077C2.91667 0.31087 2.87277 0.203259 2.79463 0.123916C2.71649 0.044574 2.61051 0 2.5 0C2.38949 0 2.28351 0.044574 2.20537 0.123916C2.12723 0.203259 2.08333 0.31087 2.08333 0.423077V0.846154H0.833333C0.61232 0.846154 0.400358 0.935302 0.244078 1.09399C0.0877973 1.25267 0 1.46789 0 1.69231V10.1538C0 10.3783 0.0877973 10.5935 0.244078 10.7522C0.400358 10.9109 0.61232 11 0.833333 11H9.16667C9.38768 11 9.59964 10.9109 9.75592 10.7522C9.9122 10.5935 10 10.3783 10 10.1538V1.69231C10 1.46789 9.9122 1.25267 9.75592 1.09399C9.59964 0.935302 9.38768 0.846154 9.16667 0.846154ZM2.08333 1.69231V2.11538C2.08333 2.22759 2.12723 2.3352 2.20537 2.41455C2.28351 2.49389 2.38949 2.53846 2.5 2.53846C2.61051 2.53846 2.71649 2.49389 2.79463 2.41455C2.87277 2.3352 2.91667 2.22759 2.91667 2.11538V1.69231H7.08333V2.11538C7.08333 2.22759 7.12723 2.3352 7.20537 2.41455C7.28351 2.49389 7.38949 2.53846 7.5 2.53846C7.61051 2.53846 7.71649 2.49389 7.79463 2.41455C7.87277 2.3352 7.91667 2.22759 7.91667 2.11538V1.69231H9.16667V3.38462H0.833333V1.69231H2.08333ZM9.16667 10.1538H0.833333V4.23077H9.16667V10.1538ZM4.16667 5.5V8.88462C4.16667 8.99682 4.12277 9.10443 4.04463 9.18378C3.96649 9.26312 3.86051 9.30769 3.75 9.30769C3.63949 9.30769 3.53351 9.26312 3.45537 9.18378C3.37723 9.10443 3.33333 8.99682 3.33333 8.88462V6.18433L3.10313 6.30173C3.00422 6.35194 2.88972 6.36021 2.78482 6.3247C2.67992 6.28919 2.5932 6.21283 2.54375 6.1124C2.4943 6.01198 2.48616 5.89572 2.52113 5.7892C2.5561 5.68269 2.6313 5.59464 2.73021 5.54442L3.56354 5.12135C3.62709 5.08906 3.69771 5.07381 3.7687 5.07705C3.83969 5.08029 3.90868 5.1019 3.96912 5.13985C4.02956 5.1778 4.07944 5.23081 4.11402 5.29384C4.14859 5.35688 4.16672 5.42785 4.16667 5.5ZM7.24792 7.11034L6.25 8.46154H7.08333C7.19384 8.46154 7.29982 8.50611 7.37796 8.58545C7.4561 8.6648 7.5 8.77241 7.5 8.88462C7.5 8.99682 7.4561 9.10443 7.37796 9.18378C7.29982 9.26312 7.19384 9.30769 7.08333 9.30769H5.41667C5.33929 9.30769 5.26343 9.28581 5.19761 9.24451C5.13179 9.2032 5.07859 9.1441 5.04399 9.07382C5.00938 9.00355 4.99473 8.92487 5.00168 8.84662C5.00863 8.76837 5.03691 8.69363 5.08333 8.63077L6.58229 6.60159C6.61639 6.5555 6.64085 6.50282 6.65417 6.44679C6.6675 6.39076 6.6694 6.33255 6.65978 6.27574C6.65015 6.21894 6.62919 6.16473 6.59819 6.11644C6.56718 6.06815 6.52679 6.02681 6.47949 5.99494C6.43218 5.96307 6.37896 5.94136 6.32309 5.93113C6.26722 5.9209 6.20989 5.92237 6.1546 5.93545C6.09931 5.94853 6.04724 5.97294 6.00158 6.00719C5.95591 6.04144 5.91763 6.0848 5.88906 6.13462C5.86251 6.18426 5.82643 6.22801 5.78296 6.26327C5.73949 6.29854 5.6895 6.3246 5.63595 6.33993C5.5824 6.35526 5.52636 6.35954 5.47115 6.35252C5.41594 6.34551 5.36267 6.32734 5.31449 6.29908C5.26631 6.27082 5.22419 6.23305 5.19062 6.18799C5.15705 6.14294 5.1327 6.09151 5.11902 6.03675C5.10534 5.98199 5.1026 5.925 5.11096 5.86914C5.11932 5.81329 5.13862 5.7597 5.16771 5.71154C5.30535 5.46969 5.51771 5.2807 5.77188 5.17386C6.02605 5.06702 6.30784 5.0483 6.57355 5.1206C6.83927 5.1929 7.07408 5.35219 7.24157 5.57376C7.40907 5.79534 7.49991 6.06683 7.5 6.34615C7.50088 6.62208 7.4123 6.89062 7.24792 7.11034Z" fill="currentColor"/>
</svg>
