<svg width="12" height="11" viewBox="0 0 12 11" fill="none" xmlns="http://www.w3.org/2000/svg">
<path d="M10.4444 1.375H9.02333L8.33333 0.305938C8.27235 0.211679 8.18972 0.134426 8.0928 0.0810503C7.99587 0.0276749 7.88766 -0.000167202 7.77778 7.55414e-07H4.22222C4.11234 -0.000167202 4.00413 0.0276749 3.9072 0.0810503C3.81028 0.134426 3.72765 0.211679 3.66667 0.305938L2.97611 1.375H1.55556C1.143 1.375 0.747335 1.54401 0.455612 1.84485C0.163888 2.14569 0 2.55372 0 2.97917V9.39583C0 9.82128 0.163888 10.2293 0.455612 10.5302C0.747335 10.831 1.143 11 1.55556 11H10.4444C10.6487 11 10.851 10.9585 11.0397 10.8779C11.2285 10.7973 11.3999 10.6791 11.5444 10.5302C11.6888 10.3812 11.8034 10.2043 11.8816 10.0097C11.9598 9.81509 12 9.60649 12 9.39583V2.97917C12 2.7685 11.9598 2.55991 11.8816 2.36528C11.8034 2.17065 11.6888 1.99381 11.5444 1.84485C11.3999 1.69589 11.2285 1.57773 11.0397 1.49711C10.851 1.41649 10.6487 1.375 10.4444 1.375ZM10.6667 9.39583C10.6667 9.45661 10.6433 9.5149 10.6016 9.55788C10.5599 9.60086 10.5034 9.625 10.4444 9.625H1.55556C1.49662 9.625 1.4401 9.60086 1.39842 9.55788C1.35675 9.5149 1.33333 9.45661 1.33333 9.39583V2.97917C1.33333 2.91839 1.35675 2.8601 1.39842 2.81712C1.4401 2.77414 1.49662 2.75 1.55556 2.75H3.33333C3.44321 2.75017 3.55143 2.72233 3.64835 2.66895C3.74528 2.61558 3.82791 2.53832 3.88889 2.44406L4.57889 1.375H7.42056L8.11111 2.44406C8.17209 2.53832 8.25472 2.61558 8.35165 2.66895C8.44857 2.72233 8.55679 2.75017 8.66667 2.75H10.4444C10.5034 2.75 10.5599 2.77414 10.6016 2.81712C10.6433 2.8601 10.6667 2.91839 10.6667 2.97917V9.39583ZM6 3.20833C5.47258 3.20833 4.95701 3.36962 4.51848 3.67179C4.07995 3.97397 3.73816 4.40346 3.53632 4.90595C3.33449 5.40845 3.28168 5.96138 3.38457 6.49483C3.48747 7.02828 3.74144 7.51828 4.11438 7.90288C4.48732 8.28747 4.96248 8.54938 5.47976 8.65549C5.99704 8.7616 6.53322 8.70714 7.02049 8.499C7.50776 8.29086 7.92423 7.93839 8.21725 7.48615C8.51027 7.03392 8.66667 6.50223 8.66667 5.95833C8.66593 5.22922 8.38474 4.53019 7.88481 4.01463C7.38487 3.49907 6.70702 3.20909 6 3.20833ZM6 7.33333C5.73629 7.33333 5.47851 7.25269 5.25924 7.1016C5.03997 6.95052 4.86908 6.73577 4.76816 6.48452C4.66724 6.23327 4.64084 5.95681 4.69229 5.69008C4.74373 5.42336 4.87072 5.17836 5.05719 4.98606C5.24366 4.79376 5.48124 4.66281 5.73988 4.60975C5.99852 4.5567 6.26661 4.58393 6.51024 4.688C6.75388 4.79207 6.96212 4.96831 7.10863 5.19442C7.25514 5.42054 7.33333 5.68638 7.33333 5.95833C7.33333 6.32301 7.19286 6.67274 6.94281 6.93061C6.69276 7.18847 6.35362 7.33333 6 7.33333Z" fill="#92A289"/>
</svg>
