<svg width="12" height="9" viewBox="0 0 12 9" fill="none" xmlns="http://www.w3.org/2000/svg">
<path d="M11.7958 1.21362L4.41335 8.79106C4.34906 8.85729 4.27265 8.90983 4.18853 8.94569C4.1044 8.98154 4.01421 9 3.92311 9C3.83202 9 3.74183 8.98154 3.6577 8.94569C3.57358 8.90983 3.49717 8.85729 3.43288 8.79106L0.203064 5.47593C0.138685 5.40985 0.0876163 5.3314 0.0527745 5.24507C0.0179328 5.15873 9.59324e-10 5.06619 0 4.97274C-9.59324e-10 4.87929 0.0179328 4.78675 0.0527745 4.70042C0.0876163 4.61408 0.138685 4.53563 0.203064 4.46955C0.267443 4.40347 0.343872 4.35106 0.427987 4.31529C0.512103 4.27953 0.602257 4.26112 0.693303 4.26112C0.784349 4.26112 0.874503 4.27953 0.958619 4.31529C1.04273 4.35106 1.11916 4.40347 1.18354 4.46955L3.92369 7.28208L10.8165 0.208428C10.9465 0.0749736 11.1228 0 11.3067 0C11.4906 0 11.6669 0.0749736 11.7969 0.208428C11.927 0.341882 12 0.522885 12 0.711617C12 0.90035 11.927 1.08135 11.7969 1.21481L11.7958 1.21362Z" fill="currentColor"/>
</svg>
