<svg width="12" height="12" viewBox="0 0 12 12" fill="none" xmlns="http://www.w3.org/2000/svg">
<path d="M8.69389 4.195C8.75604 4.25693 8.80535 4.33053 8.839 4.41156C8.87265 4.4926 8.88997 4.57948 8.88997 4.66722C8.88997 4.75496 8.87265 4.84184 8.839 4.92288C8.80535 5.00391 8.75604 5.07751 8.69389 5.13944L5.58278 8.25055C5.52084 8.3127 5.44725 8.36202 5.36621 8.39567C5.28518 8.42931 5.1983 8.44663 5.11056 8.44663C5.02281 8.44663 4.93593 8.42931 4.8549 8.39567C4.77387 8.36202 4.70027 8.3127 4.63833 8.25055L3.305 6.91722C3.24299 6.85521 3.1938 6.78159 3.16024 6.70056C3.12668 6.61954 3.1094 6.5327 3.1094 6.445C3.1094 6.3573 3.12668 6.27046 3.16024 6.18943C3.1938 6.10841 3.24299 6.03479 3.305 5.97278C3.36702 5.91076 3.44064 5.86157 3.52166 5.82801C3.60268 5.79445 3.68952 5.77718 3.77722 5.77718C3.86492 5.77718 3.95176 5.79445 4.03279 5.82801C4.11381 5.86157 4.18743 5.91076 4.24945 5.97278L5.11111 6.83333L7.75056 4.19333C7.81258 4.13146 7.88619 4.08241 7.96719 4.04901C8.04818 4.0156 8.13496 3.99849 8.22257 3.99864C8.31018 3.9988 8.3969 4.01622 8.47777 4.04991C8.55865 4.0836 8.63208 4.13291 8.69389 4.195ZM12 6C12 7.18669 11.6481 8.34672 10.9888 9.33342C10.3295 10.3201 9.39246 11.0891 8.2961 11.5433C7.19974 11.9974 5.99335 12.1162 4.82946 11.8847C3.66557 11.6532 2.59648 11.0818 1.75736 10.2426C0.918247 9.40352 0.346802 8.33443 0.115291 7.17054C-0.11622 6.00665 0.00259972 4.80026 0.456725 3.7039C0.910851 2.60754 1.67989 1.67047 2.66658 1.01118C3.65328 0.351894 4.81331 0 6 0C7.59076 0.00176457 9.11586 0.634472 10.2407 1.75931C11.3655 2.88414 11.9982 4.40924 12 6ZM10.6667 6C10.6667 5.07702 10.393 4.17477 9.88019 3.40734C9.36741 2.63991 8.63858 2.04177 7.78586 1.68856C6.93313 1.33535 5.99482 1.24294 5.08958 1.423C4.18434 1.60307 3.35282 2.04752 2.70017 2.70017C2.04753 3.35281 1.60307 4.18433 1.423 5.08958C1.24294 5.99482 1.33536 6.93313 1.68856 7.78585C2.04177 8.63858 2.63991 9.36741 3.40734 9.88019C4.17477 10.393 5.07702 10.6667 6 10.6667C7.23727 10.6653 8.42349 10.1733 9.29837 9.29837C10.1733 8.42348 10.6653 7.23727 10.6667 6Z" fill="#9CA3AF"/>
</svg>
