<svg width="10" height="10" viewBox="0 0 10 10" fill="none" xmlns="http://www.w3.org/2000/svg">
<path d="M7.19519 3.57404C7.23095 3.60976 7.25932 3.65218 7.27868 3.69887C7.29803 3.74556 7.308 3.79561 7.308 3.84615C7.308 3.8967 7.29803 3.94675 7.27868 3.99344C7.25932 4.04013 7.23095 4.08255 7.19519 4.11827L4.50289 6.81058C4.46717 6.84634 4.42475 6.8747 4.37806 6.89406C4.33136 6.91342 4.28131 6.92338 4.23077 6.92338C4.18023 6.92338 4.13018 6.91342 4.08349 6.89406C4.03679 6.8747 3.99438 6.84634 3.95866 6.81058L2.80481 5.65673C2.73264 5.58456 2.6921 5.48668 2.6921 5.38461C2.6921 5.28255 2.73264 5.18467 2.80481 5.1125C2.87698 5.04033 2.97486 4.99978 3.07692 4.99978C3.17899 4.99978 3.27687 5.04033 3.34904 5.1125L4.23077 5.99471L6.65096 3.57404C6.68668 3.53828 6.7291 3.50991 6.77579 3.49055C6.82248 3.4712 6.87253 3.46124 6.92308 3.46124C6.97362 3.46124 7.02367 3.4712 7.07036 3.49055C7.11705 3.50991 7.15947 3.53828 7.19519 3.57404ZM10 5C10 5.98891 9.70676 6.9556 9.15735 7.77785C8.60794 8.60009 7.82705 9.24096 6.91342 9.6194C5.99979 9.99783 4.99445 10.0969 4.02455 9.90392C3.05465 9.711 2.16373 9.23479 1.46447 8.53553C0.765206 7.83627 0.289002 6.94536 0.0960758 5.97545C-0.0968502 5.00555 0.00216642 4.00021 0.380605 3.08658C0.759043 2.17295 1.3999 1.39206 2.22215 0.842652C3.0444 0.293245 4.01109 0 5 0C6.32565 0.00139991 7.59661 0.528633 8.53399 1.46601C9.47137 2.40339 9.9986 3.67435 10 5ZM9.23077 5C9.23077 4.16323 8.98264 3.34526 8.51776 2.64951C8.05287 1.95376 7.39212 1.4115 6.61905 1.09128C5.84597 0.771062 4.99531 0.687279 4.17462 0.850524C3.35393 1.01377 2.60008 1.41671 2.0084 2.00839C1.41671 2.60008 1.01377 3.35393 0.850526 4.17462C0.687281 4.99531 0.771064 5.84597 1.09128 6.61904C1.4115 7.39212 1.95377 8.05287 2.64951 8.51775C3.34526 8.98264 4.16323 9.23077 5 9.23077C6.12168 9.2295 7.19705 8.78335 7.9902 7.9902C8.78335 7.19705 9.2295 6.12168 9.23077 5Z" fill="#6B7280"/>
</svg>
