<svg width="16" height="17" viewBox="0 0 16 17" fill="none" xmlns="http://www.w3.org/2000/svg">
<path d="M14.4 1.25926H12.8V0.944444C12.8 0.693962 12.6989 0.453739 12.5188 0.276621C12.3388 0.0995037 12.0946 0 11.84 0C11.5854 0 11.3412 0.0995037 11.1612 0.276621C10.9811 0.453739 10.88 0.693962 10.88 0.944444V1.25926H5.12V0.944444C5.12 0.693962 5.01886 0.453739 4.83882 0.276621C4.65879 0.0995037 4.41461 0 4.16 0C3.90539 0 3.66121 0.0995037 3.48118 0.276621C3.30114 0.453739 3.2 0.693962 3.2 0.944444V1.25926H1.6C1.17565 1.25926 0.768687 1.4251 0.468629 1.72029C0.168571 2.01549 0 2.41586 0 2.83333V15.4259C0 15.8434 0.168571 16.2438 0.468629 16.539C0.768687 16.8342 1.17565 17 1.6 17H14.4C14.8243 17 15.2313 16.8342 15.5314 16.539C15.8314 16.2438 16 15.8434 16 15.4259V2.83333C16 2.41586 15.8314 2.01549 15.5314 1.72029C15.2313 1.4251 14.8243 1.25926 14.4 1.25926ZM3.2 3.14815C3.2 3.39863 3.30114 3.63885 3.48118 3.81597C3.66121 3.99309 3.90539 4.09259 4.16 4.09259C4.41461 4.09259 4.65879 3.99309 4.83882 3.81597C5.01886 3.63885 5.12 3.39863 5.12 3.14815H10.88C10.88 3.39863 10.9811 3.63885 11.1612 3.81597C11.3412 3.99309 11.5854 4.09259 11.84 4.09259C12.0946 4.09259 12.3388 3.99309 12.5188 3.81597C12.6989 3.63885 12.8 3.39863 12.8 3.14815H14.08V5.03704H1.92V3.14815H3.2ZM1.92 15.1111V6.92593H14.08V15.1111H1.92Z" fill="#3E6FA8"/>
</svg>
