<svg width="12" height="12" viewBox="0 0 12 12" fill="none" xmlns="http://www.w3.org/2000/svg">
<path d="M11.797 2.04958L9.95089 0.203604C9.88658 0.139068 9.81016 0.087863 9.72601 0.0529241C9.64186 0.0179852 9.55165 0 9.46053 0C9.36942 0 9.2792 0.0179852 9.19505 0.0529241C9.11091 0.087863 9.03448 0.139068 8.97017 0.203604L3.43196 5.74155C3.30259 5.87167 3.23017 6.04782 3.23062 6.23131V8.07729C3.23062 8.26088 3.30356 8.43696 3.43339 8.56678C3.56321 8.6966 3.7393 8.76953 3.9229 8.76953H5.76897C5.85991 8.7696 5.94997 8.75176 6.03401 8.71702C6.11805 8.68227 6.19442 8.63132 6.25875 8.56705L11.797 3.02911C11.8613 2.96482 11.9124 2.88847 11.9472 2.80443C11.9821 2.7204 12 2.63032 12 2.53935C12 2.44838 11.9821 2.3583 11.9472 2.27426C11.9124 2.19022 11.8613 2.11388 11.797 2.04958ZM9.46111 1.67404L10.3265 2.53935L9.69187 3.1739L8.82652 2.3086L9.46111 1.67404ZM5.48052 7.38505H4.61518V6.51974L7.8458 3.28928L8.71114 4.15458L5.48052 7.38505ZM11.5379 6.95643V10.8463C11.5379 11.1523 11.4164 11.4457 11.2 11.6621C10.9836 11.8784 10.6901 12 10.3841 12H1.15379C0.847789 12 0.554317 11.8784 0.337938 11.6621C0.12156 11.4457 0 11.1523 0 10.8463V1.61636C0 1.31037 0.12156 1.01691 0.337938 0.80054C0.554317 0.584172 0.847789 0.462618 1.15379 0.462618H5.04381C5.22741 0.462618 5.4035 0.535551 5.53332 0.665371C5.66315 0.795192 5.73609 0.971267 5.73609 1.15486C5.73609 1.33846 5.66315 1.51453 5.53332 1.64435C5.4035 1.77417 5.22741 1.8471 5.04381 1.8471H1.38455V10.6155H10.1534V6.95643C10.1534 6.77284 10.2263 6.59676 10.3561 6.46694C10.486 6.33712 10.6621 6.26419 10.8457 6.26419C11.0293 6.26419 11.2053 6.33712 11.3352 6.46694C11.465 6.59676 11.5379 6.77284 11.5379 6.95643Z" fill="#EF4444"/>
</svg>
