<svg width="10" height="12" viewBox="0 0 10 12" fill="none" xmlns="http://www.w3.org/2000/svg">
<path d="M9.54545 0H1.81818C1.33597 0 0.873508 0.194505 0.532533 0.540726C0.191558 0.886947 0 1.35652 0 1.84615V11.5385C0 11.6609 0.0478896 11.7783 0.133133 11.8648C0.218377 11.9514 0.333993 12 0.454545 12H8.63636C8.75692 12 8.87253 11.9514 8.95778 11.8648C9.04302 11.7783 9.09091 11.6609 9.09091 11.5385C9.09091 11.4161 9.04302 11.2987 8.95778 11.2121C8.87253 11.1255 8.75692 11.0769 8.63636 11.0769H0.909091C0.909091 10.8321 1.00487 10.5973 1.17536 10.4242C1.34585 10.2511 1.57708 10.1538 1.81818 10.1538H9.54545C9.66601 10.1538 9.78162 10.1052 9.86687 10.0187C9.95211 9.93211 10 9.81472 10 9.69231V0.461538C10 0.339131 9.95211 0.221737 9.86687 0.135181C9.78162 0.0486262 9.66601 0 9.54545 0ZM9.09091 9.23077H1.81818C1.49895 9.23033 1.18529 9.31572 0.909091 9.47827V1.84615C0.909091 1.60134 1.00487 1.36655 1.17536 1.19344C1.34585 1.02033 1.57708 0.923077 1.81818 0.923077H9.09091V9.23077Z" fill="#6B7280"/>
</svg>
