<svg width="12" height="12" viewBox="0 0 12 12" fill="none" xmlns="http://www.w3.org/2000/svg">
<path d="M6 0C4.4087 0 2.88258 0.632141 1.75736 1.75736C0.632141 2.88258 0 4.4087 0 6C0 7.5913 0.632141 9.11742 1.75736 10.2426C2.88258 11.3679 4.4087 12 6 12C7.23722 12 8.53833 11.6261 9.48 11C9.62734 10.9021 9.72976 10.7497 9.76471 10.5762C9.79967 10.4028 9.7643 10.2226 9.66639 10.0753C9.56848 9.92794 9.41605 9.82552 9.24263 9.79057C9.06921 9.75561 8.88901 9.79098 8.74167 9.88889C8.01944 10.3683 6.97 10.6667 6 10.6667C5.07702 10.6667 4.17477 10.393 3.40734 9.88019C2.63991 9.36741 2.04177 8.63858 1.68856 7.78586C1.33535 6.93313 1.24294 5.99482 1.423 5.08958C1.60307 4.18433 2.04752 3.35281 2.70017 2.70017C3.35281 2.04752 4.18433 1.60307 5.08958 1.423C5.99482 1.24294 6.93313 1.33535 7.78586 1.68856C8.63858 2.04177 9.36741 2.63991 9.88019 3.40734C10.393 4.17477 10.6667 5.07702 10.6667 6C10.6667 6.51611 10.5739 6.94889 10.4061 7.21944C10.2594 7.455 10.0728 7.55556 9.77778 7.55556C9.48278 7.55556 9.29611 7.455 9.14944 7.21944C8.98278 6.94889 8.88889 6.51611 8.88889 6V3.77778C8.88887 3.61781 8.83134 3.46318 8.72678 3.34211C8.62223 3.22104 8.47763 3.14161 8.31937 3.11829C8.16111 3.09498 7.99975 3.12935 7.86473 3.21514C7.7297 3.30092 7.63003 3.43239 7.58389 3.58556C7.12552 3.28437 6.59089 3.11989 6.04249 3.11134C5.49409 3.1028 4.95459 3.25054 4.48706 3.5373C4.01953 3.82405 3.64329 4.23798 3.40233 4.73067C3.16137 5.22337 3.06564 5.77448 3.12633 6.31958C3.18703 6.86468 3.40164 7.38123 3.74508 7.80886C4.08852 8.23648 4.54659 8.5575 5.06575 8.7344C5.58491 8.91129 6.14369 8.93674 6.67678 8.80777C7.20986 8.6788 7.69522 8.40075 8.07611 8.00611C8.46111 8.57222 9.045 8.88889 9.77778 8.88889C11.1483 8.88889 12 7.78222 12 6C11.9982 4.40924 11.3655 2.88414 10.2407 1.75931C9.11586 0.634472 7.59076 0.00176457 6 0ZM6 7.55556C5.69234 7.55556 5.39159 7.46432 5.13578 7.2934C4.87997 7.12247 4.68059 6.87953 4.56285 6.59529C4.44512 6.31104 4.41431 5.99827 4.47433 5.69653C4.53436 5.39478 4.68251 5.1176 4.90006 4.90006C5.1176 4.68251 5.39478 4.53436 5.69653 4.47433C5.99827 4.41431 6.31104 4.44512 6.59529 4.56285C6.87953 4.68059 7.12247 4.87997 7.2934 5.13578C7.46432 5.39159 7.55556 5.69234 7.55556 6C7.55556 6.41256 7.39167 6.80822 7.09994 7.09994C6.80822 7.39167 6.41256 7.55556 6 7.55556Z" fill="#9CA3AF"/>
</svg>
