<svg width="10" height="10" viewBox="0 0 10 10" fill="none" xmlns="http://www.w3.org/2000/svg">
<path d="M9.88741 9.34377L7.4828 6.93964C8.17975 6.10291 8.52729 5.02969 8.45311 3.94324C8.37894 2.8568 7.88876 1.84077 7.08455 1.10653C6.28034 0.372284 5.22402 -0.0236488 4.13533 0.00109353C3.04664 0.0258359 2.00939 0.469349 1.23937 1.23937C0.469349 2.00939 0.0258359 3.04664 0.00109353 4.13533C-0.0236488 5.22402 0.372284 6.28034 1.10653 7.08455C1.84077 7.88876 2.8568 8.37894 3.94324 8.45311C5.02969 8.52729 6.10291 8.17975 6.93964 7.4828L9.34377 9.88741C9.37946 9.9231 9.42184 9.95142 9.46848 9.97074C9.51512 9.99006 9.56511 10 9.61559 10C9.66607 10 9.71606 9.99006 9.7627 9.97074C9.80933 9.95142 9.85171 9.9231 9.88741 9.88741C9.9231 9.85171 9.95142 9.80933 9.97074 9.7627C9.99006 9.71606 10 9.66607 10 9.61559C10 9.56511 9.99006 9.51512 9.97074 9.46848C9.95142 9.42184 9.9231 9.37946 9.88741 9.34377ZM0.779013 4.2368C0.779013 3.55292 0.981809 2.88439 1.36176 2.31576C1.7417 1.74713 2.28174 1.30393 2.91356 1.04222C3.54539 0.780509 4.24064 0.712034 4.91138 0.845453C5.58213 0.978873 6.19825 1.3082 6.68183 1.79178C7.16541 2.27536 7.49473 2.89148 7.62815 3.56222C7.76157 4.23297 7.6931 4.92821 7.43138 5.56004C7.16967 6.19187 6.72648 6.7319 6.15785 7.11185C5.58922 7.4918 4.92069 7.69459 4.2368 7.69459C3.32005 7.69358 2.44114 7.32895 1.7929 6.68071C1.14466 6.03247 0.78003 5.15355 0.779013 4.2368Z" fill="#6B7280"/>
</svg>
