<svg width="9" height="10" viewBox="0 0 9 10" fill="none" xmlns="http://www.w3.org/2000/svg">
<path d="M8.14031 2.73469L5.51531 0.109688C5.48046 0.0748747 5.43909 0.0472695 5.39357 0.028449C5.34805 0.00962843 5.29926 -3.86197e-05 5.25 1.15949e-07H0.75C0.551088 1.15949e-07 0.360322 0.0790177 0.21967 0.21967C0.0790176 0.360322 0 0.551088 0 0.75V9C0 9.19891 0.0790176 9.38968 0.21967 9.53033C0.360322 9.67098 0.551088 9.75 0.75 9.75H7.5C7.69891 9.75 7.88968 9.67098 8.03033 9.53033C8.17098 9.38968 8.25 9.19891 8.25 9V3C8.25004 2.95074 8.24037 2.90195 8.22155 2.85643C8.20273 2.81091 8.17513 2.76954 8.14031 2.73469ZM5.625 1.28016L6.96984 2.625H5.625V1.28016ZM7.5 9H0.75V0.75H4.875V3C4.875 3.09946 4.91451 3.19484 4.98483 3.26516C5.05516 3.33549 5.15054 3.375 5.25 3.375H7.5V9ZM6 5.25C6 5.34946 5.96049 5.44484 5.89017 5.51517C5.81984 5.58549 5.72446 5.625 5.625 5.625H2.625C2.52554 5.625 2.43016 5.58549 2.35984 5.51517C2.28951 5.44484 2.25 5.34946 2.25 5.25C2.25 5.15054 2.28951 5.05516 2.35984 4.98483C2.43016 4.91451 2.52554 4.875 2.625 4.875H5.625C5.72446 4.875 5.81984 4.91451 5.89017 4.98483C5.96049 5.05516 6 5.15054 6 5.25ZM6 6.75C6 6.84946 5.96049 6.94484 5.89017 7.01517C5.81984 7.08549 5.72446 7.125 5.625 7.125H2.625C2.52554 7.125 2.43016 7.08549 2.35984 7.01517C2.28951 6.94484 2.25 6.84946 2.25 6.75C2.25 6.65054 2.28951 6.55516 2.35984 6.48483C2.43016 6.41451 2.52554 6.375 2.625 6.375H5.625C5.72446 6.375 5.81984 6.41451 5.89017 6.48483C5.96049 6.55516 6 6.65054 6 6.75Z" fill="#6B7280"/>
</svg>
