<svg width="20" height="20" viewBox="0 0 20 20" fill="none" xmlns="http://www.w3.org/2000/svg">
<path d="M4.44422 7.406V1.2C4.44422 0.88174 4.32715 0.576516 4.11877 0.351472C3.9104 0.126428 3.62778 0 3.33309 0C3.0384 0 2.75578 0.126428 2.5474 0.351472C2.33903 0.576516 2.22196 0.88174 2.22196 1.2V7.406C1.57213 7.6542 1.00952 8.11385 0.611597 8.72168C0.213672 9.3295 0 10.0556 0 10.8C0 11.5444 0.213672 12.2705 0.611597 12.8783C1.00952 13.4861 1.57213 13.9458 2.22196 14.194V18.8C2.22196 19.1183 2.33903 19.4235 2.5474 19.6485C2.75578 19.8736 3.0384 20 3.33309 20C3.62778 20 3.9104 19.8736 4.11877 19.6485C4.32715 19.4235 4.44422 19.1183 4.44422 18.8V14.194C5.09405 13.9458 5.65665 13.4861 6.05458 12.8783C6.4525 12.2705 6.66618 11.5444 6.66618 10.8C6.66618 10.0556 6.4525 9.3295 6.05458 8.72168C5.65665 8.11385 5.09405 7.6542 4.44422 7.406ZM3.33309 12C3.11333 12 2.8985 11.9296 2.71578 11.7978C2.53305 11.6659 2.39064 11.4785 2.30654 11.2592C2.22244 11.0399 2.20044 10.7987 2.24331 10.5659C2.28618 10.3331 2.39201 10.1193 2.5474 9.95147C2.7028 9.78365 2.90078 9.66936 3.11632 9.62306C3.33186 9.57676 3.55527 9.60052 3.7583 9.69134C3.96133 9.78217 4.13486 9.93598 4.25696 10.1333C4.37905 10.3307 4.44422 10.5627 4.44422 10.8C4.44422 11.1183 4.32715 11.4235 4.11877 11.6485C3.9104 11.8736 3.62778 12 3.33309 12ZM13.3332 6C13.3323 5.2558 13.1182 4.53014 12.7203 3.92251C12.3225 3.31488 11.7603 2.85503 11.111 2.606V1.2C11.111 0.88174 10.9939 0.576516 10.7855 0.351472C10.5772 0.126428 10.2945 0 9.99985 0C9.70516 0 9.42254 0.126428 9.21417 0.351472C9.00579 0.576516 8.88873 0.88174 8.88873 1.2V2.606C8.2389 2.8542 7.67629 3.31385 7.27836 3.92168C6.88044 4.5295 6.66677 5.2556 6.66677 6C6.66677 6.7444 6.88044 7.4705 7.27836 8.07832C7.67629 8.68615 8.2389 9.1458 8.88873 9.394V18.8C8.88873 19.1183 9.00579 19.4235 9.21417 19.6485C9.42254 19.8736 9.70516 20 9.99985 20C10.2945 20 10.5772 19.8736 10.7855 19.6485C10.9939 19.4235 11.111 19.1183 11.111 18.8V9.394C11.7603 9.14497 12.3225 8.68512 12.7203 8.07749C13.1182 7.46986 13.3323 6.7442 13.3332 6ZM9.99985 7.2C9.78009 7.2 9.56527 7.12962 9.38254 6.99776C9.19982 6.86591 9.0574 6.67849 8.9733 6.45922C8.88921 6.23995 8.8672 5.99867 8.91008 5.76589C8.95295 5.53311 9.05877 5.31929 9.21417 5.15147C9.36956 4.98365 9.56754 4.86936 9.78308 4.82306C9.99862 4.77676 10.222 4.80052 10.4251 4.89134C10.6281 4.98217 10.8016 5.13598 10.9237 5.33332C11.0458 5.53065 11.111 5.76266 11.111 6C11.111 6.31826 10.9939 6.62348 10.7855 6.84853C10.5772 7.07357 10.2945 7.2 9.99985 7.2ZM20 14C19.999 13.2558 19.7849 12.5301 19.3871 11.9225C18.9892 11.3149 18.4271 10.855 17.7777 10.606V1.2C17.7777 0.88174 17.6607 0.576516 17.4523 0.351472C17.2439 0.126428 16.9613 0 16.6666 0C16.3719 0 16.0893 0.126428 15.8809 0.351472C15.6726 0.576516 15.5555 0.88174 15.5555 1.2V10.606C14.9057 10.8542 14.3431 11.3139 13.9451 11.9217C13.5472 12.5295 13.3335 13.2556 13.3335 14C13.3335 14.7444 13.5472 15.4705 13.9451 16.0783C14.3431 16.6861 14.9057 17.1458 15.5555 17.394V18.8C15.5555 19.1183 15.6726 19.4235 15.8809 19.6485C16.0893 19.8736 16.3719 20 16.6666 20C16.9613 20 17.2439 19.8736 17.4523 19.6485C17.6607 19.4235 17.7777 19.1183 17.7777 18.8V17.394C18.4271 17.145 18.9892 16.6851 19.3871 16.0775C19.7849 15.4699 19.999 14.7442 20 14ZM16.6666 15.2C16.4469 15.2 16.232 15.1296 16.0493 14.9978C15.8666 14.8659 15.7242 14.6785 15.6401 14.4592C15.556 14.2399 15.534 13.9987 15.5768 13.7659C15.6197 13.5331 15.7255 13.3193 15.8809 13.1515C16.0363 12.9836 16.2343 12.8694 16.4498 12.8231C16.6654 12.7768 16.8888 12.8005 17.0918 12.8913C17.2949 12.9822 17.4684 13.136 17.5905 13.3333C17.7126 13.5307 17.7777 13.7627 17.7777 14C17.7777 14.3183 17.6607 14.6235 17.4523 14.8485C17.2439 15.0736 16.9613 15.2 16.6666 15.2Z" fill="#6B7280"/>
</svg>
