<svg width="24" height="24" viewBox="0 0 24 24" fill="none" xmlns="http://www.w3.org/2000/svg">
<path d="M23.2968 9.90616L13.6968 0.675643C13.2467 0.243029 12.6364 0 12 0C11.3636 0 10.7533 0.243029 10.3032 0.675643L0.703212 9.90616C0.479444 10.12 0.30206 10.3744 0.181348 10.6547C0.0606365 10.9349 -0.00100041 11.2355 1.22789e-05 11.5388V22.6154C1.22789e-05 22.9826 0.151726 23.3348 0.421778 23.5945C0.69183 23.8541 1.0581 24 1.44001 24H9.12C9.50191 24 9.86818 23.8541 10.1382 23.5945C10.4083 23.3348 10.56 22.9826 10.56 22.6154V16.6156H13.44V22.6154C13.44 22.9826 13.5917 23.3348 13.8618 23.5945C14.1318 23.8541 14.4981 24 14.88 24H22.56C22.9419 24 23.3082 23.8541 23.5782 23.5945C23.8483 23.3348 24 22.9826 24 22.6154V11.5388C24.001 11.2355 23.9394 10.9349 23.8187 10.6547C23.6979 10.3744 23.5206 10.12 23.2968 9.90616ZM21.12 21.2308H16.32V15.231C16.32 14.8638 16.1683 14.5116 15.8982 14.252C15.6282 13.9923 15.2619 13.8464 14.88 13.8464H9.12C8.73809 13.8464 8.37182 13.9923 8.10177 14.252C7.83172 14.5116 7.68 14.8638 7.68 15.231V21.2308H2.88001V11.7292L12 2.9602L21.12 11.7292V21.2308Z" fill="currentColor"/>
</svg>
