<svg width="8" height="15" viewBox="0 0 8 15" fill="none" xmlns="http://www.w3.org/2000/svg">
<path d="M7.7293 13.3275C7.90263 13.5112 8 13.7604 8 14.0203C8 14.2801 7.90263 14.5293 7.7293 14.713C7.55597 14.8968 7.32089 15 7.07577 15C6.83065 15 6.59557 14.8968 6.42224 14.713L0.271366 8.19278C0.185352 8.10191 0.117105 7.99395 0.0705378 7.87506C0.0239707 7.75618 0 7.62872 0 7.5C0 7.37128 0.0239707 7.24382 0.0705378 7.12494C0.117105 7.00605 0.185352 6.89808 0.271366 6.80722L6.42224 0.286958C6.59557 0.103222 6.83065 -3.87195e-09 7.07577 0C7.32089 3.87195e-09 7.55597 0.103222 7.7293 0.286958C7.90263 0.470694 8 0.719894 8 0.979736C8 1.23958 7.90263 1.48878 7.7293 1.67251L2.23273 7.49918L7.7293 13.3275Z" fill="currentColor"/>
</svg>
