<svg width="5" height="18" viewBox="0 0 5 18" fill="none" xmlns="http://www.w3.org/2000/svg">
<path d="M2.5 6.42857C2.00555 6.42857 1.5222 6.57938 1.11108 6.86194C0.699953 7.14449 0.379521 7.54609 0.190302 8.01596C0.0010832 8.48582 -0.0484251 9.00285 0.0480379 9.50166C0.144501 10.0005 0.382603 10.4587 0.732234 10.8183C1.08186 11.1779 1.52732 11.4228 2.01227 11.522C2.49723 11.6212 2.99989 11.5703 3.45671 11.3757C3.91352 11.1811 4.30397 10.8515 4.57867 10.4286C4.85338 10.0057 5 9.50858 5 9C5 8.31802 4.73661 7.66396 4.26777 7.18173C3.79892 6.69949 3.16304 6.42857 2.5 6.42857ZM2.5 9.64286C2.37639 9.64286 2.25555 9.60515 2.15277 9.53452C2.04999 9.46388 1.96988 9.36348 1.92258 9.24601C1.87527 9.12854 1.86289 8.99929 1.88701 8.87459C1.91113 8.74988 1.97065 8.63534 2.05806 8.54543C2.14547 8.45553 2.25683 8.3943 2.37807 8.3695C2.49931 8.34469 2.62497 8.35742 2.73918 8.40608C2.85338 8.45473 2.95099 8.53713 3.01967 8.64285C3.08834 8.74856 3.125 8.87286 3.125 9C3.125 9.1705 3.05915 9.33401 2.94194 9.45457C2.82473 9.57513 2.66576 9.64286 2.5 9.64286ZM2.5 5.14286C2.99445 5.14286 3.4778 4.99205 3.88892 4.70949C4.30005 4.42694 4.62048 4.02534 4.8097 3.55547C4.99892 3.08561 5.04843 2.56858 4.95196 2.06977C4.8555 1.57096 4.6174 1.11278 4.26777 0.753155C3.91813 0.393534 3.47268 0.14863 2.98773 0.0494104C2.50277 -0.0498087 2.00011 0.00111415 1.54329 0.195739C1.08648 0.390365 0.696031 0.719951 0.421327 1.14282C0.146624 1.56569 1.34724e-06 2.06285 1.34724e-06 2.57143C1.34724e-06 3.25341 0.263393 3.90747 0.732234 4.3897C1.20107 4.87194 1.83696 5.14286 2.5 5.14286ZM2.5 1.92857C2.62361 1.92857 2.74445 1.96628 2.84723 2.03691C2.95001 2.10755 3.03012 2.20795 3.07742 2.32542C3.12473 2.44289 3.13711 2.57214 3.11299 2.69684C3.08887 2.82155 3.02935 2.93609 2.94194 3.026C2.85453 3.1159 2.74317 3.17713 2.62193 3.20193C2.50069 3.22674 2.37503 3.21401 2.26082 3.16535C2.14662 3.1167 2.04901 3.0343 1.98033 2.92858C1.91166 2.82286 1.875 2.69857 1.875 2.57143C1.875 2.40093 1.94085 2.23742 2.05806 2.11686C2.17527 1.9963 2.33424 1.92857 2.5 1.92857ZM2.5 12.8571C2.00555 12.8571 1.5222 13.008 1.11108 13.2905C0.699953 13.5731 0.379521 13.9747 0.190302 14.4445C0.0010832 14.9144 -0.0484251 15.4314 0.0480379 15.9302C0.144501 16.429 0.382603 16.8872 0.732234 17.2468C1.08186 17.6065 1.52732 17.8514 2.01227 17.9506C2.49723 18.0498 2.99989 17.9989 3.45671 17.8043C3.91352 17.6096 4.30397 17.28 4.57867 16.8572C4.85338 16.4343 5 15.9372 5 15.4286C5 14.7466 4.73661 14.0925 4.26777 13.6103C3.79892 13.1281 3.16304 12.8571 2.5 12.8571ZM2.5 16.0714C2.37639 16.0714 2.25555 16.0337 2.15277 15.9631C2.04999 15.8924 1.96988 15.792 1.92258 15.6746C1.87527 15.5571 1.86289 15.4279 1.88701 15.3032C1.91113 15.1785 1.97065 15.0639 2.05806 14.974C2.14547 14.8841 2.25683 14.8229 2.37807 14.7981C2.49931 14.7733 2.62497 14.786 2.73918 14.8346C2.85338 14.8833 2.95099 14.9657 3.01967 15.0714C3.08834 15.1771 3.125 15.3014 3.125 15.4286C3.125 15.5991 3.05915 15.7626 2.94194 15.8831C2.82473 16.0037 2.66576 16.0714 2.5 16.0714Z" fill="currentColor"/>
</svg>
