<svg width="16" height="16" viewBox="0 0 16 16" fill="none" xmlns="http://www.w3.org/2000/svg">
<path d="M15.7345 9.31134C15.6182 9.19489 15.4725 9.11228 15.3128 9.07238C15.1532 9.03248 14.9857 9.0368 14.8284 9.08486C13.729 9.41666 12.5603 9.44412 11.4466 9.16431C10.3329 8.8845 9.31594 8.30791 8.5041 7.49594C7.69226 6.68398 7.11593 5.66706 6.83648 4.5535C6.55703 3.43994 6.58494 2.27145 6.91724 1.1725C6.96572 1.0151 6.97036 0.847467 6.93067 0.687628C6.89097 0.527788 6.80845 0.38179 6.69197 0.265335C6.57549 0.14888 6.42946 0.066374 6.26958 0.026691C6.1097 -0.0129921 5.94203 -0.00835116 5.7846 0.0401146C4.13124 0.548175 2.68032 1.56473 1.63838 2.94506C0.727211 4.15588 0.171559 5.5966 0.0337747 7.10556C-0.10401 8.61452 0.181524 10.132 0.858337 11.4878C1.53515 12.8435 2.57646 13.9839 3.86543 14.7809C5.1544 15.5779 6.64002 16.0001 8.15559 16C9.92504 16.0052 11.6474 15.4299 13.0584 14.3625C14.4383 13.3198 15.4541 11.8684 15.961 10.215C16.0086 10.058 16.0127 9.89097 15.9728 9.73182C15.9329 9.57266 15.8505 9.42733 15.7345 9.31134ZM11.9681 12.9153C10.7467 13.8346 9.23434 14.2819 7.70933 14.1749C6.18431 14.0679 4.74925 13.4139 3.66825 12.3331C2.58725 11.2524 1.93305 9.81763 1.82605 8.29295C1.71904 6.76828 2.16644 5.25626 3.08589 4.03517C3.56971 3.39535 4.16931 2.85196 4.85357 2.43322C4.83998 2.62648 4.83318 2.8205 4.83318 3.01527C4.83558 5.17689 5.69554 7.24929 7.22438 8.77779C8.75322 10.3063 10.8261 11.1661 12.9882 11.1685C13.183 11.1685 13.3771 11.1617 13.5704 11.1481C13.1517 11.8323 12.6082 12.4318 11.9681 12.9153Z" fill="#6B5CA5"/>
</svg>
