<svg width="24" height="24" viewBox="0 0 24 24" fill="none" xmlns="http://www.w3.org/2000/svg">
<path d="M23.8422 21.8879C22.3187 19.1163 19.9399 16.9567 17.0886 15.7568C18.5065 14.6544 19.5539 13.1176 20.0824 11.3639C20.6108 9.61017 20.5936 7.72857 20.0331 5.98559C19.4726 4.2426 18.3973 2.72661 16.9594 1.65234C15.5216 0.578076 13.7941 0 12.0217 0C10.2492 0 8.52174 0.578076 7.08387 1.65234C5.64601 2.72661 4.57067 4.2426 4.01018 5.98559C3.44969 7.72857 3.43247 9.61017 3.96095 11.3639C4.48942 13.1176 5.53682 14.6544 6.95475 15.7568C4.10343 16.9567 1.72456 19.1163 0.201109 21.8879C0.10671 22.0452 0.0437939 22.2206 0.0161004 22.4037C-0.0115932 22.5867 -0.00349872 22.7737 0.0399026 22.9534C0.083304 23.1332 0.161126 23.302 0.268743 23.45C0.376359 23.5979 0.511573 23.7219 0.666346 23.8146C0.821119 23.9073 0.992291 23.9668 1.16969 23.9895C1.34708 24.0123 1.52708 23.9978 1.69898 23.947C1.87087 23.8962 2.03116 23.8101 2.17032 23.6938C2.30947 23.5775 2.42464 23.4334 2.50899 23.2701C4.52242 19.6626 8.07814 17.511 12.0217 17.511C15.9652 17.511 19.5209 19.6637 21.5343 23.2701C21.7171 23.5747 22.0071 23.7938 22.3428 23.8809C22.6786 23.9681 23.0339 23.9164 23.3337 23.7369C23.6334 23.5574 23.854 23.2641 23.9489 22.9191C24.0438 22.574 24.0055 22.2042 23.8422 21.8879ZM6.24361 8.75723C6.24361 7.57263 6.58249 6.41464 7.21739 5.42968C7.85229 4.44473 8.75469 3.67705 9.81049 3.22372C10.8663 2.7704 12.0281 2.65179 13.1489 2.88289C14.2697 3.11399 15.2993 3.68443 16.1073 4.52207C16.9154 5.3597 17.4657 6.42691 17.6887 7.58875C17.9116 8.75058 17.7972 9.95486 17.3599 11.0493C16.9225 12.1437 16.182 13.0791 15.2318 13.7373C14.2816 14.3954 13.1644 14.7466 12.0217 14.7466C10.4898 14.7448 9.02112 14.1132 7.93791 12.9904C6.8547 11.8675 6.24537 10.3452 6.24361 8.75723Z" fill="currentColor"/>
</svg>
