<svg width="30" height="35" viewBox="0 0 30 35" fill="none" xmlns="http://www.w3.org/2000/svg">
<path d="M29.6011 9.81683L20.0557 0.39375C19.9289 0.268781 19.7785 0.169685 19.613 0.102124C19.4474 0.0345636 19.27 -0.000138635 19.0909 4.16229e-07H2.72727C2.00396 4.16229e-07 1.31026 0.283653 0.7988 0.788559C0.287337 1.29346 0 1.97826 0 2.69231V32.3077C0 33.0217 0.287337 33.7065 0.7988 34.2114C1.31026 34.7163 2.00396 35 2.72727 35H27.2727C27.996 35 28.6897 34.7163 29.2012 34.2114C29.7127 33.7065 30 33.0217 30 32.3077V10.7692C30.0001 10.5924 29.965 10.4173 29.8966 10.2539C29.8281 10.0904 29.7277 9.94194 29.6011 9.81683ZM20.4545 4.59543L25.3449 9.42308H20.4545V4.59543ZM27.2727 32.3077H2.72727V2.69231H17.7273V10.7692C17.7273 11.1263 17.8709 11.4687 18.1267 11.7211C18.3824 11.9736 18.7293 12.1154 19.0909 12.1154H27.2727V32.3077ZM21.8182 18.8462C21.8182 19.2032 21.6745 19.5456 21.4188 19.798C21.1631 20.0505 20.8162 20.1923 20.4545 20.1923H9.54545C9.1838 20.1923 8.83695 20.0505 8.58122 19.798C8.32549 19.5456 8.18182 19.2032 8.18182 18.8462C8.18182 18.4891 8.32549 18.1467 8.58122 17.8943C8.83695 17.6418 9.1838 17.5 9.54545 17.5H20.4545C20.8162 17.5 21.1631 17.6418 21.4188 17.8943C21.6745 18.1467 21.8182 18.4891 21.8182 18.8462ZM21.8182 24.2308C21.8182 24.5878 21.6745 24.9302 21.4188 25.1826C21.1631 25.4351 20.8162 25.5769 20.4545 25.5769H9.54545C9.1838 25.5769 8.83695 25.4351 8.58122 25.1826C8.32549 24.9302 8.18182 24.5878 8.18182 24.2308C8.18182 23.8737 8.32549 23.5313 8.58122 23.2789C8.83695 23.0264 9.1838 22.8846 9.54545 22.8846H20.4545C20.8162 22.8846 21.1631 23.0264 21.4188 23.2789C21.6745 23.5313 21.8182 23.8737 21.8182 24.2308Z" fill="white"/>
</svg>
