<svg width="12" height="10" viewBox="0 0 12 10" fill="none" xmlns="http://www.w3.org/2000/svg">
<path d="M2.55962 0.201794C2.50864 0.142407 2.44676 0.0940681 2.37756 0.0595775C2.30837 0.0250869 2.23323 0.00513096 2.15652 0.000866291C2.07981 -0.00339838 2.00304 0.00811303 1.93066 0.0347333C1.85828 0.0613536 1.79174 0.102553 1.73488 0.155945C1.67803 0.209336 1.632 0.273857 1.59945 0.345768C1.5669 0.417679 1.54849 0.49555 1.54529 0.574867C1.54208 0.654185 1.55414 0.733371 1.58077 0.807837C1.60739 0.882302 1.64806 0.950566 1.70041 1.00867L2.47448 1.89104C0.807807 3.03787 0.0845363 4.68362 0.0497032 4.76111C0.0169277 4.8379 0 4.9209 0 5.00482C0 5.08875 0.0169277 5.17175 0.0497032 5.24854C0.0676035 5.28953 0.491406 6.26138 1.42803 7.22874C2.68009 8.52105 4.25871 9.20394 6.00036 9.20394C6.84682 9.20879 7.68569 9.03882 8.46771 8.70402L9.43965 9.80885C9.54374 9.9244 9.68771 9.99289 9.84034 9.99948C9.99297 10.0061 10.142 9.95022 10.255 9.84406C10.3681 9.73789 10.4361 9.58995 10.4443 9.43232C10.4525 9.27468 10.4002 9.12006 10.2989 9.00197L2.55962 0.201794ZM6.00036 8.00412C4.56882 8.00412 3.31676 7.4677 2.27951 6.41036C1.8715 5.9929 1.52043 5.51996 1.23596 5.00457C1.49092 4.53914 2.14501 3.5098 3.2679 2.79041L7.62639 7.74516C7.10077 7.91859 6.55212 8.00597 6.00036 8.00412ZM11.951 5.24854C11.9336 5.28903 11.5156 6.24839 10.5964 7.20624C10.5438 7.26662 10.4798 7.31531 10.4084 7.34937C10.337 7.38344 10.2597 7.40215 10.181 7.40439C10.1024 7.40662 10.0242 7.39233 9.9511 7.36238C9.87799 7.33243 9.81154 7.28745 9.75577 7.23016C9.7 7.17286 9.65607 7.10446 9.62666 7.0291C9.59724 6.95373 9.58295 6.87298 9.58465 6.79174C9.58635 6.71049 9.60401 6.63045 9.63655 6.55647C9.66909 6.48249 9.71583 6.41612 9.77395 6.36137C10.1601 5.9557 10.4932 5.49956 10.7648 5.00457C10.4805 4.48907 10.1294 4.01611 9.72122 3.59878C8.68348 2.54144 7.43191 2.00502 6.00036 2.00502C5.83829 2.00502 5.67622 2.01202 5.51657 2.02602C5.43963 2.03454 5.36182 2.02708 5.28772 2.00407C5.21361 1.98107 5.14471 1.943 5.08504 1.89208C5.02538 1.84117 4.97617 1.77844 4.94031 1.7076C4.90444 1.63675 4.88264 1.55921 4.87619 1.47953C4.86974 1.39985 4.87877 1.31964 4.90275 1.24362C4.92673 1.1676 4.96517 1.0973 5.01582 1.03685C5.06646 0.976406 5.12829 0.927029 5.19767 0.891626C5.26705 0.856223 5.34257 0.835508 5.41981 0.830699C5.60994 0.813702 5.80684 0.805203 6.00036 0.805203C7.74202 0.805203 9.32063 1.4886 10.5717 2.78091C11.5079 3.74826 11.9317 4.72062 11.9496 4.76111C11.9826 4.83779 11.9997 4.92074 12 5.00467C12.0002 5.08859 11.9836 5.17165 11.951 5.24854Z" fill="#9CA3AF"/>
</svg>
