<svg width="12" height="8" viewBox="0 0 12 8" fill="none" xmlns="http://www.w3.org/2000/svg">
<path d="M11.951 3.7681C11.9331 3.72952 11.5093 2.80333 10.5732 1.8819C9.32063 0.650952 7.74202 0 6.00036 0C4.25871 0 2.68009 0.650952 1.429 1.8819C0.492858 2.80333 0.0690549 3.72952 0.0497032 3.7681C0.0169277 3.84124 0 3.9203 0 4.00024C0 4.08018 0.0169277 4.15924 0.0497032 4.23238C0.0676035 4.27143 0.491406 5.19714 1.42803 6.11857C2.68009 7.34952 4.25871 8 6.00036 8C7.74202 8 9.32063 7.34952 10.5712 6.11857C11.5079 5.19714 11.9317 4.27143 11.9496 4.23238C11.9826 4.15934 11.9997 4.08033 12 4.00039C12.0002 3.92045 11.9836 3.84134 11.951 3.7681ZM9.72267 5.33952C8.68396 6.34619 7.43191 6.85714 6.00036 6.85714C4.56882 6.85714 3.31676 6.34619 2.27951 5.33905C1.87135 4.94154 1.52026 4.49103 1.23596 4C1.52034 3.50917 1.87143 3.05883 2.27951 2.66143C3.31724 1.65381 4.56882 1.14286 6.00036 1.14286C7.43191 1.14286 8.68348 1.65381 9.72122 2.66143C10.1293 3.05879 10.4804 3.50914 10.7648 4C10.4804 4.491 10.1293 4.9415 9.72122 5.33905L9.72267 5.33952ZM6.00036 1.90476C5.57935 1.90476 5.16779 2.02765 4.81772 2.25787C4.46766 2.4881 4.19482 2.81533 4.03371 3.19819C3.87259 3.58104 3.83044 4.00232 3.91257 4.40876C3.99471 4.8152 4.19745 5.18853 4.49515 5.48156C4.79285 5.77458 5.17215 5.97413 5.58507 6.05498C5.998 6.13582 6.42601 6.09433 6.81498 5.93575C7.20394 5.77716 7.5364 5.50861 7.7703 5.16405C8.00421 4.81949 8.12905 4.4144 8.12905 4C8.12841 3.4445 7.90393 2.91194 7.50487 2.51914C7.1058 2.12634 6.56473 1.90539 6.00036 1.90476ZM6.00036 4.95238C5.80899 4.95238 5.62192 4.89652 5.4628 4.79188C5.30368 4.68723 5.17966 4.53849 5.10643 4.36446C5.03319 4.19044 5.01403 3.99894 5.05137 3.8142C5.0887 3.62946 5.18085 3.45976 5.31617 3.32657C5.45149 3.19337 5.6239 3.10267 5.81159 3.06592C5.99929 3.02917 6.19384 3.04803 6.37064 3.12011C6.54744 3.1922 6.69856 3.31427 6.80488 3.47089C6.9112 3.6275 6.96795 3.81164 6.96795 4C6.96795 4.25259 6.86601 4.49483 6.68455 4.67344C6.50309 4.85204 6.25698 4.95238 6.00036 4.95238Z" fill="#9CA3AF"/>
</svg>
