<svg width="12" height="13" viewBox="0 0 12 13" fill="none" xmlns="http://www.w3.org/2000/svg">
<path d="M10.8 4.17857H9.12V3.01786C9.12 2.21747 8.79129 1.44987 8.20617 0.88391C7.62106 0.317952 6.82748 0 6 0C5.17252 0 4.37894 0.317952 3.79383 0.88391C3.20871 1.44987 2.88 2.21747 2.88 3.01786V4.17857H1.2C0.88174 4.17857 0.576516 4.30086 0.351472 4.51854C0.126428 4.73621 0 5.03145 0 5.33929V11.8393C0 12.1471 0.126428 12.4424 0.351472 12.66C0.576516 12.8777 0.88174 13 1.2 13H10.8C11.1183 13 11.4235 12.8777 11.6485 12.66C11.8736 12.4424 12 12.1471 12 11.8393V5.33929C12 5.03145 11.8736 4.73621 11.6485 4.51854C11.4235 4.30086 11.1183 4.17857 10.8 4.17857ZM4.32 3.01786C4.32 2.58688 4.497 2.17356 4.81206 1.86881C5.12712 1.56406 5.55444 1.39286 6 1.39286C6.44556 1.39286 6.87288 1.56406 7.18794 1.86881C7.503 2.17356 7.68 2.58688 7.68 3.01786V4.17857H4.32V3.01786ZM10.56 11.6071H1.44V5.57143H10.56V11.6071ZM6.96 8.58929C6.96 8.77294 6.9037 8.95247 6.79821 9.10517C6.69272 9.25788 6.54279 9.37689 6.36738 9.44717C6.19196 9.51746 5.99893 9.53584 5.81271 9.50001C5.62649 9.46419 5.45544 9.37575 5.32118 9.24588C5.18692 9.11602 5.09549 8.95057 5.05845 8.77044C5.0214 8.59032 5.04042 8.40361 5.11308 8.23394C5.18574 8.06426 5.30878 7.91924 5.46665 7.81721C5.62452 7.71517 5.81013 7.66071 6 7.66071C6.25461 7.66071 6.49879 7.75855 6.67882 7.93269C6.85886 8.10683 6.96 8.34301 6.96 8.58929Z" fill="#9CA3AF"/>
</svg>
