<svg width="24" height="24" viewBox="0 0 24 24" fill="none" xmlns="http://www.w3.org/2000/svg">
<path d="M22.6667 21H22.2222V1.5C22.2222 1.10218 22.0817 0.720644 21.8317 0.43934C21.5816 0.158035 21.2425 0 20.8889 0H14.6667C14.313 0 13.9739 0.158035 13.7239 0.43934C13.4738 0.720644 13.3333 1.10218 13.3333 1.5V6H8.44444C8.09082 6 7.75168 6.15804 7.50164 6.43934C7.25159 6.72064 7.11111 7.10218 7.11111 7.5V12H3.11111C2.75749 12 2.41835 12.158 2.1683 12.4393C1.91825 12.7206 1.77778 13.1022 1.77778 13.5V21H1.33333C0.979711 21 0.640573 21.158 0.390524 21.4393C0.140476 21.7206 0 22.1022 0 22.5C0 22.8978 0.140476 23.2794 0.390524 23.5607C0.640573 23.842 0.979711 24 1.33333 24H22.6667C23.0203 24 23.3594 23.842 23.6095 23.5607C23.8595 23.2794 24 22.8978 24 22.5C24 22.1022 23.8595 21.7206 23.6095 21.4393C23.3594 21.158 23.0203 21 22.6667 21ZM16 3H19.5556V21H16V3ZM9.77778 9H13.3333V21H9.77778V9ZM4.44444 15H7.11111V21H4.44444V15Z" fill="currentColor"/>
</svg>
