<svg width="8" height="14" viewBox="0 0 8 14" fill="none" xmlns="http://www.w3.org/2000/svg">
<path d="M7.72789 7.64659L1.57761 13.7322C1.4043 13.9037 1.16924 14 0.924142 14C0.679044 14 0.443985 13.9037 0.270675 13.7322C0.0973645 13.5607 1.82612e-09 13.3281 0 13.0856C-1.82612e-09 12.8431 0.0973645 12.6105 0.270675 12.439L5.76826 7.00076L0.272213 1.56101C0.186398 1.4761 0.118326 1.3753 0.0718836 1.26435C0.0254411 1.15341 0.00153731 1.0345 0.00153731 0.91442C0.00153731 0.794337 0.0254411 0.675429 0.0718836 0.564487C0.118326 0.453544 0.186398 0.352739 0.272213 0.267828C0.358027 0.182916 0.459904 0.11556 0.572026 0.0696062C0.684148 0.0236523 0.80432 -8.9469e-10 0.92568 0C1.04704 8.94692e-10 1.16721 0.0236523 1.27933 0.0696062C1.39146 0.11556 1.49333 0.182916 1.57915 0.267828L7.72943 6.35341C7.81533 6.43831 7.88345 6.53916 7.92988 6.65017C7.97632 6.76119 8.00014 6.88017 8 7.00032C7.99986 7.12046 7.97575 7.23939 7.92905 7.35029C7.88236 7.4612 7.814 7.56189 7.72789 7.64659Z" fill="currentColor"/>
</svg>
