<svg width="10" height="8" viewBox="0 0 10 8" fill="none" xmlns="http://www.w3.org/2000/svg">
<path d="M9.61539 0H0.384615C0.282609 0 0.184781 0.0421428 0.112651 0.117157C0.0405218 0.192172 0 0.293913 0 0.4V7.2C0 7.41217 0.0810437 7.61566 0.225302 7.76569C0.369561 7.91571 0.565218 8 0.769231 8H9.23077C9.43478 8 9.63044 7.91571 9.7747 7.76569C9.91896 7.61566 10 7.41217 10 7.2V0.4C10 0.293913 9.95948 0.192172 9.88735 0.117157C9.81522 0.0421428 9.71739 0 9.61539 0ZM8.62644 0.8L5 4.2575L1.37356 0.8H8.62644ZM9.23077 7.2H0.769231V1.3095L4.7399 5.095C4.81086 5.16274 4.90368 5.20033 5 5.20033C5.09632 5.20033 5.18914 5.16274 5.2601 5.095L9.23077 1.3095V7.2Z" fill="#6B7280"/>
</svg>
