<svg width="16" height="16" viewBox="0 0 16 16" fill="none" xmlns="http://www.w3.org/2000/svg">
<path d="M15.5817 7.51267L8.48764 0.418567C8.35538 0.285429 8.19799 0.179874 8.02462 0.108024C7.85125 0.036174 7.66534 -0.000541634 7.47767 6.03784e-06H0.857127C0.629804 6.03784e-06 0.411792 0.0903096 0.251051 0.251051C0.0903096 0.411792 6.03784e-06 0.629804 6.03784e-06 0.857127V7.47767C-0.000541634 7.66534 0.036174 7.85125 0.108024 8.02462C0.179874 8.19799 0.285429 8.35538 0.418567 8.48764L7.51267 15.5817C7.78056 15.8496 8.14385 16 8.52264 16C8.90144 16 9.26473 15.8496 9.53262 15.5817L15.5817 9.53262C15.8496 9.26473 16 8.90144 16 8.52264C16 8.14385 15.8496 7.78056 15.5817 7.51267ZM8.52264 14.1675L1.71425 7.35696V1.71425H7.35696L14.1654 8.52264L8.52264 14.1675ZM5.42844 4.28561C5.42844 4.51164 5.36141 4.73259 5.23584 4.92053C5.11026 5.10847 4.93177 5.25495 4.72295 5.34144C4.51413 5.42794 4.28434 5.45057 4.06265 5.40648C3.84097 5.36238 3.63734 5.25354 3.47751 5.09371C3.31768 4.93388 3.20884 4.73025 3.16474 4.50856C3.12064 4.28688 3.14328 4.05709 3.22977 3.84827C3.31627 3.63944 3.46275 3.46096 3.65069 3.33538C3.83863 3.20981 4.05958 3.14278 4.28561 3.14278C4.58871 3.14278 4.87939 3.26319 5.09371 3.47751C5.30803 3.69183 5.42844 3.98251 5.42844 4.28561Z" fill="#3E6FA8"/>
</svg>
