<svg width="12" height="12" viewBox="0 0 12 12" fill="none" xmlns="http://www.w3.org/2000/svg">
<path d="M11.3079 7.77683L8.59114 6.55892L8.58076 6.55431C8.40417 6.47817 8.21131 6.44753 8.01981 6.46516C7.82832 6.4828 7.6443 6.54816 7.48458 6.65527C7.46219 6.67026 7.44062 6.68644 7.41997 6.70373L6.13282 7.79991C5.38281 7.39317 4.60798 6.62469 4.20067 5.88391L5.30031 4.57657C5.31798 4.55547 5.33436 4.53332 5.34935 4.51023C5.45364 4.35108 5.51697 4.16861 5.53368 3.97907C5.55039 3.78953 5.51996 3.59879 5.44512 3.42386C5.44334 3.42051 5.4418 3.41704 5.4405 3.41347L4.22317 0.692069C4.12324 0.464481 3.95271 0.275111 3.73679 0.151982C3.52087 0.0288533 3.27105 -0.0214906 3.0243 0.00840069C2.1868 0.118418 1.41799 0.529531 0.861448 1.16496C0.304906 1.80038 -0.0013048 2.61667 4.17936e-06 3.46136C4.17936e-06 8.16972 3.83028 12 8.53864 12C9.38333 12.0013 10.1996 11.6951 10.835 11.1386C11.4705 10.582 11.8816 9.8132 11.9916 8.9757C12.0215 8.72895 11.9711 8.47913 11.848 8.26321C11.7249 8.04729 11.5355 7.87675 11.3079 7.77683ZM8.53864 10.6154C6.64199 10.6131 4.82367 9.8586 3.48253 8.51746C2.1414 7.17633 1.38694 5.35801 1.38465 3.46136C1.38333 2.98336 1.5456 2.51931 1.84451 2.1463C2.14342 1.7733 2.56096 1.5138 3.02776 1.41093L4.11355 3.83406L3.00814 5.15062C2.99028 5.17191 2.97371 5.19426 2.95853 5.21755C2.84957 5.38402 2.78552 5.57584 2.77258 5.77439C2.75964 5.97293 2.79825 6.17144 2.88468 6.35065C3.42815 7.46298 4.54798 8.57531 5.67185 9.11994C5.85226 9.20546 6.05177 9.24272 6.25089 9.22805C6.45 9.21339 6.6419 9.14731 6.80784 9.03628C6.83015 9.02123 6.85153 9.00486 6.87188 8.98724L8.16594 7.88703L10.5891 8.97224C10.4862 9.43904 10.2267 9.85658 9.8537 10.1555C9.48069 10.4544 9.01664 10.6167 8.53864 10.6154Z" fill="#9CA3AF"/>
</svg>
